<svg width="732" height="377" viewBox="0 0 732 377" fill="none" xmlns="http://www.w3.org/2000/svg">
<g clip-path="url(#clip0_211_3283)">
<path d="M36.7482 352.235L68.202 302.31L36.7314 357.674L36.7146 363.362C34.4706 363.336 32.2494 363.25 30.0511 363.104L32.6169 290.027L32.5833 289.463L32.641 289.355L32.8856 282.45L0 227.734L32.9214 277.281L33.02 278.741L34.9578 223.53L6.68548 166.918L35.1791 213.828L36.5043 99.389L36.5102 99.0078L36.5146 99.3825L37.16 189.611L64.1765 153.509L37.1367 197.383L37.0111 246.801L62.078 199.073L36.9972 254.065L36.9242 281.544L73.3365 215.086L36.8986 291.132L36.7482 352.235Z" fill="#D0CDE1"/>
<path d="M478.236 141.51H469.394V204.305H478.236V141.51Z" fill="#030303"/>
<path d="M151.028 7.87462L147.702 16.0693L474.928 148.913L478.254 140.718L151.028 7.87462Z" fill="#030303"/>
<path d="M731.999 360.549C718.304 383.434 -0.722717 381.514 0.364513 360.549C14.0626 337.663 733.089 339.584 731.999 360.549Z" fill="#D0CDE1"/>
<path d="M641.828 267.984H564.896V298.056H641.828V267.984Z" fill="#030303"/>
<path d="M634.754 294.518H255.399V328.126H634.754V294.518Z" fill="#030303"/>
<path d="M572.412 311.321H481.331V196.787H549.421L572.412 254.555V311.321Z" fill="#D0CDE1"/>
<path d="M534.388 203.862H495.479V242.778H534.388V203.862Z" fill="white"/>
<path d="M563.568 243.221H538.809V204.306H549.42L563.568 243.221Z" fill="white"/>
<path d="M506.09 264.889H497.248V281.693H506.09V264.889Z" fill="#030303"/>
<path d="M546.325 229.069H546.768C547.871 229.069 548.964 229.286 549.983 229.708C551.002 230.13 551.929 230.749 552.709 231.529C553.489 232.31 554.108 233.236 554.53 234.256C554.952 235.275 555.169 236.368 555.168 237.472C555.168 239.699 554.284 241.835 552.709 243.41C551.134 244.985 548.998 245.87 546.771 245.87H546.329L546.325 229.069Z" fill="#030303"/>
<path d="M217.373 294.518H217.816C220.043 294.518 222.178 295.402 223.753 296.977C225.328 298.552 226.213 300.689 226.213 302.916C226.213 304.019 225.995 305.112 225.573 306.131C225.151 307.15 224.532 308.076 223.752 308.856C222.972 309.636 222.046 310.255 221.026 310.676C220.007 311.098 218.915 311.315 217.812 311.315H217.373V294.518Z" fill="#030303"/>
<path d="M607.782 294.392C621.257 294.392 633.378 300.921 641.788 311.323H659.07L642.268 264.51L564.01 249.075L566.221 311.322H573.775C582.186 300.921 594.306 294.392 607.782 294.392Z" fill="#D0CDE1"/>
<path d="M608.667 360.851C629.911 360.851 647.133 343.626 647.133 322.378C647.133 301.129 629.911 283.904 608.667 283.904C587.422 283.904 570.2 301.129 570.2 322.378C570.2 343.626 587.422 360.851 608.667 360.851Z" fill="#030303"/>
<path d="M608.667 342.628C619.849 342.628 628.913 333.562 628.913 322.378C628.913 311.195 619.849 302.129 608.667 302.129C597.486 302.129 588.422 311.195 588.422 322.378C588.422 333.562 597.486 342.628 608.667 342.628Z" fill="#D0CDE1"/>
<path d="M261.147 360.409C279.705 360.409 294.749 345.362 294.749 326.8C294.749 308.239 279.705 293.191 261.147 293.191C242.588 293.191 227.544 308.239 227.544 326.8C227.544 345.362 242.588 360.409 261.147 360.409Z" fill="#030303"/>
<path d="M261.147 344.489C270.914 344.489 278.832 336.569 278.832 326.8C278.832 317.031 270.914 309.111 261.147 309.111C251.379 309.111 243.461 317.031 243.461 326.8C243.461 336.569 251.379 344.489 261.147 344.489Z" fill="#D0CDE1"/>
<path d="M483.984 180.867H465.414V314.86H483.984V180.867Z" fill="#030303"/>
<path d="M483.984 290.538H216.933V298.498H483.984V290.538Z" fill="#030303"/>
<path d="M365.258 240.501L74.0205 319.752L76.1097 327.432L367.347 248.181L365.258 240.501Z" fill="#030303"/>
<path d="M345.376 250.158L340.389 253.824L371.026 295.523L376.014 291.857L345.376 250.158Z" fill="#030303"/>
<path d="M551.63 244.989H542.788V248.527H551.63V244.989Z" fill="#030303"/>
<path d="M473.815 271.522H357.975C357.762 271.522 357.557 271.446 357.396 271.306C357.236 271.167 357.13 270.975 357.1 270.765C357.069 270.554 357.116 270.34 357.23 270.161C357.345 269.982 357.52 269.85 357.724 269.79L470.911 236.181C471.037 236.144 471.17 236.135 471.301 236.155C471.431 236.176 471.555 236.225 471.663 236.3C471.772 236.375 471.862 236.473 471.928 236.587C471.994 236.701 472.034 236.828 472.044 236.96L474.697 270.568C474.706 270.69 474.691 270.812 474.651 270.928C474.611 271.043 474.547 271.149 474.464 271.238C474.382 271.328 474.281 271.399 474.169 271.448C474.058 271.497 473.937 271.522 473.815 271.522ZM364.06 269.753H472.856L470.365 238.188L364.06 269.753Z" fill="#030303"/>
<path d="M160.127 232.607H160.119L134.734 232.368C134.61 232.367 134.487 232.34 134.375 232.288C134.262 232.237 134.161 232.162 134.079 232.069C133.997 231.976 133.935 231.867 133.898 231.749C133.861 231.631 133.849 231.506 133.863 231.383L147.052 116.273C147.077 116.058 147.18 115.859 147.341 115.714C147.503 115.57 147.712 115.49 147.929 115.489H147.932C148.15 115.49 148.36 115.571 148.522 115.718C148.683 115.864 148.785 116.064 148.808 116.281L161.002 231.628C161.015 231.751 161.002 231.875 160.964 231.993C160.926 232.111 160.864 232.219 160.781 232.311C160.699 232.403 160.598 232.477 160.485 232.528C160.372 232.578 160.25 232.605 160.126 232.605L160.127 232.607ZM135.732 230.609L159.143 230.828L147.897 124.452L135.732 230.609Z" fill="#030303"/>
<path d="M648.19 281.221L647.777 281.377C645.694 282.166 643.384 282.095 641.354 281.18C639.325 280.265 637.741 278.58 636.953 276.498C636.165 274.415 636.236 272.105 637.151 270.074C638.066 268.044 639.749 266.461 641.832 265.672L642.245 265.515L648.19 281.221Z" fill="#030303"/>
<path d="M110.167 286.072L85.501 292.978L86.5968 296.893L111.263 289.988L110.167 286.072Z" fill="#030303"/>
<path d="M288.786 237.121L284.024 239.721L90.6069 293.869L87.7351 290.301C82.7593 284.196 79.5788 276.826 78.5487 269.017C77.8186 263.186 78.3523 257.04 82.4187 253.299L75.0322 193.713L182.003 163.624L232.739 185.46C232.739 185.46 252.173 179.652 266.473 189.901C271 193.148 275.016 198.003 277.729 205.169L280.066 211.926L288.786 237.121Z" fill="#D0E1CC"/>
<path d="M246.03 272.841C259.728 272.841 270.832 261.735 270.832 248.035C270.832 234.335 259.728 223.229 246.03 223.229C232.333 223.229 221.229 234.335 221.229 248.035C221.229 261.735 232.333 272.841 246.03 272.841Z" fill="#030303"/>
<path d="M246.031 261.091C253.24 261.091 259.084 255.246 259.084 248.035C259.084 240.825 253.24 234.979 246.031 234.979C238.822 234.979 232.978 240.825 232.978 248.035C232.978 255.246 238.822 261.091 246.031 261.091Z" fill="#D0CDE1"/>
<path d="M128.179 305.835C141.876 305.835 152.981 294.728 152.981 281.028C152.981 267.328 141.876 256.222 128.179 256.222C114.481 256.222 103.377 267.328 103.377 281.028C103.377 294.728 114.481 305.835 128.179 305.835Z" fill="#030303"/>
<path d="M128.178 294.084C135.387 294.084 141.232 288.239 141.232 281.028C141.232 273.818 135.387 267.973 128.178 267.973C120.969 267.973 115.125 273.818 115.125 281.028C115.125 288.239 120.969 294.084 128.178 294.084Z" fill="#D0CDE1"/>
<path d="M215.2 186.144L138.459 207.627L131.993 184.522L180.938 170.819L215.2 186.144Z" fill="white"/>
<path d="M122.596 187.154L92.0557 195.704L98.5215 218.809L129.061 210.259L122.596 187.154Z" fill="white"/>
<path d="M147.195 223.764L143.28 224.86L145.363 232.301L149.278 231.205L147.195 223.764Z" fill="#030303"/>
<path d="M209.936 199.018L208.84 195.103L201.401 197.185L202.496 201.101L209.936 199.018Z" fill="#030303"/>
<path d="M200.043 181.773L200.474 181.653C202.644 181.045 204.967 181.325 206.931 182.43C208.896 183.535 210.34 185.376 210.948 187.547C211.555 189.717 211.276 192.041 210.171 194.005C209.065 195.97 207.225 197.415 205.055 198.022L204.624 198.143L200.043 181.773Z" fill="#030303"/>
<path d="M280.071 211.922C277.199 213.071 274.015 213.169 271.078 212.2C268.141 211.231 265.641 209.257 264.016 206.625C262.392 203.993 261.748 200.872 262.199 197.812C262.649 194.752 264.164 191.949 266.478 189.896C271.005 193.143 275.021 197.999 277.734 205.165L280.071 211.922Z" fill="#030303"/>
<path d="M151.938 7.95996H143.096V137.088H151.938V7.95996Z" fill="#030303"/>
<path d="M147.517 24.7648C154.354 24.7648 159.897 19.221 159.897 12.3824C159.897 5.54378 154.354 0 147.517 0C140.679 0 135.137 5.54378 135.137 12.3824C135.137 19.221 140.679 24.7648 147.517 24.7648Z" fill="#030303"/>
<path d="M473.816 155.661C480.653 155.661 486.196 150.117 486.196 143.279C486.196 136.44 480.653 130.896 473.816 130.896C466.978 130.896 461.436 136.44 461.436 143.279C461.436 150.117 466.978 155.661 473.816 155.661Z" fill="#030303"/>
</g>
<defs>
<clipPath id="clip0_211_3283">
<rect width="732" height="377" fill="white"/>
</clipPath>
</defs>
</svg>
